RobotoExtremo-opsz144-wght400-wdth100-YOPQmin.ufo
<glyph name="exclam" format="2">
  <advance width="536"/>
  <unicode hex="0021"/>
  <outline>
    <contour>
      <point x="186.0" y="44.81481481481482" type="qcurve" smooth="yes"/>
      <point x="186.0" y="72.14814814814815"/>
      <point x="228.0" y="111.62962962962963"/>
      <point x="267.0" y="111.62962962962963" type="qcurve" smooth="yes"/>
      <point x="307.0" y="111.62962962962963"/>
      <point x="350.0" y="72.14814814814815"/>
      <point x="350.0" y="44.81481481481482" type="qcurve" smooth="yes"/>
      <point x="350.0" y="17.48148148148148"/>
      <point x="308.0" y="-22.0"/>
      <point x="268.0" y="-22.0" type="qcurve" smooth="yes"/>
      <point x="228.0" y="-22.0"/>
      <point x="186.0" y="17.48148148148148"/>
    </contour>
    <contour>
      <point x="222.0" y="379.55555555555554" type="line"/>
      <point x="213.0" y="1456.0" type="line"/>
      <point x="324.0" y="1456.0" type="line"/>
      <point x="314.0" y="379.55555555555554" type="line"/>
    </contour>
  </outline>
</glyph>
<glyph name="numbersign" format="2">
  <advance width="1415"/>
  <unicode hex="0023"/>
  <outline>
    <contour>
      <point x="225.0" y="-20.0" type="line"/>
      <point x="669.0" y="1475.5185185185185" type="line"/>
      <point x="762.0" y="1475.5185185185185" type="line"/>
      <point x="318.0" y="-20.0" type="line"/>
    </contour>
    <contour>
      <point x="652.0" y="-20.0" type="line"/>
      <point x="1097.0" y="1475.5185185185185" type="line"/>
      <point x="1189.0" y="1475.5185185185185" type="line"/>
      <point x="746.0" y="-20.0" type="line"/>
    </contour>
    <contour>
      <point x="79.0" y="465.0" type="line"/>
      <point x="79.0" y="510.55555555555554" type="line"/>
      <point x="1263.0" y="510.55555555555554" type="line"/>
      <point x="1263.0" y="465.0" type="line"/>
    </contour>
    <contour>
      <point x="164.03703703703704" y="931.4074074074074" type="line"/>
      <point x="164.03703703703704" y="976.9629629629629" type="line"/>
      <point x="1347.037037037037" y="976.9629629629629" type="line"/>
      <point x="1347.037037037037" y="931.4074074074074" type="line"/>
    </contour>
  </outline>
</glyph>
<glyph name="dollar" format="2">
  <advance width="936"/>
  <unicode hex="0024"/>
  <outline>
    <contour>
      <point x="59.0" y="417.0" type="qcurve" smooth="yes"/>
      <point x="59.0" y="429.48148148148147" type="line"/>
      <point x="169.37037037037038" y="429.48148148148147" type="line"/>
      <point x="169.37037037037038" y="417.0" type="line" smooth="yes"/>
      <point x="169.37037037037038" y="223.74590869939706"/>
      <point x="334.25925925925924" y="48.22222222222222"/>
      <point x="481.14814814814815" y="48.22222222222222" type="qcurve" smooth="yes"/>
      <point x="628.0370370370371" y="48.22222222222222"/>
      <point x="775.2962962962963" y="224.83818046234154"/>
      <point x="775.2962962962963" y="370.51851851851853" type="qcurve" smooth="yes"/>
      <point x="775.2962962962963" y="498.8922558922559"/>
      <point x="679.0119903717316" y="649.4129817316672"/>
      <point x="474.18518518518516" y="712.1851851851852" type="qcurve" smooth="yes"/>
      <point x="265.42305985418085" y="775.7208098075824"/>
      <point x="85.48148148148148" y="945.929676511955"/>
      <point x="85.48148148148148" y="1099.3703703703704" type="qcurve" smooth="yes"/>
      <point x="85.48148148148148" y="1266.2962962962963"/>
      <point x="291.81481481481484" y="1455.037037037037"/>
      <point x="471.14814814814815" y="1455.037037037037" type="qcurve" smooth="yes"/>
      <point x="654.0" y="1455.037037037037"/>
      <point x="858.1851851851852" y="1238.111111111111"/>
      <point x="858.1851851851852" y="1045.4814814814815" type="qcurve" smooth="yes"/>
      <point x="858.1851851851852" y="1033.0" type="line"/>
      <point x="746.8148148148148" y="1033.0" type="line"/>
      <point x="746.8148148148148" y="1045.4814814814815" type="line" smooth="yes"/>
      <point x="746.8148148148148" y="1216.85053692746"/>
      <point x="611.5555555555555" y="1410.1851851851852"/>
      <point x="471.14814814814815" y="1410.1851851851852" type="qcurve" smooth="yes"/>
      <point x="330.25925925925924" y="1410.1851851851852"/>
      <point x="197.85185185185185" y="1249.944705268649"/>
      <point x="197.85185185185185" y="1102.3703703703704" type="qcurve" smooth="yes"/>
      <point x="197.85185185185185" y="976.0"/>
      <point x="321.25925925925924" y="831.2592592592592"/>
      <point x="526.5925925925926" y="767.8518518518518" type="qcurve" smooth="yes"/>
      <point x="733.925925925926" y="702.9629629629629"/>
      <point x="886.6666666666666" y="526.1851851851852"/>
      <point x="886.6666666666666" y="373.51851851851853" type="qcurve" smooth="yes"/>
      <point x="886.6666666666666" y="195.62962962962962"/>
      <point x="671.4814814814815" y="2.888888888888889"/>
      <point x="481.14814814814815" y="2.888888888888889" type="qcurve" smooth="yes"/>
      <point x="288.81481481481484" y="2.888888888888889"/>
      <point x="59.0" y="201.40740740740742"/>
    </contour>
    <contour>
      <point x="432.14814814814815" y="-140.37037037037038" type="line"/>
      <point x="432.14814814814815" y="713.5555555555555" type="line"/>
      <point x="523.074074074074" y="713.5555555555555" type="line"/>
      <point x="523.074074074074" y="25.925925925925927" type="line"/>
      <point x="525.1481481481482" y="15.925925925925927" type="line"/>
      <point x="525.1481481481482" y="-140.37037037037038" type="line"/>
    </contour>
    <contour>
      <point x="431.22222222222223" y="713.5555555555555" type="line"/>
      <point x="431.22222222222223" y="1415.2592592592594" type="line"/>
      <point x="428.14814814814815" y="1425.2592592592594" type="line"/>
      <point x="428.14814814814815" y="1615.6296296296296" type="line"/>
      <point x="521.1481481481482" y="1615.6296296296296" type="line"/>
      <point x="521.1481481481482" y="713.5555555555555" type="line"/>
    </contour>
  </outline>
</glyph>
<glyph name="parenright" format="2">
  <advance width="613"/>
  <unicode hex="0029"/>
  <outline>
    <contour>
      <point x="56.0" y="-436.0" type="qcurve"/>
      <point x="56.0" y="-413.5925925925926" type="line"/>
      <point x="193.66175353112612" y="-341.7690690111355"/>
      <point x="381.0" y="103.15564932020624"/>
      <point x="381.0" y="508.0" type="qcurve" smooth="yes"/>
      <point x="381.0" y="532.0" type="line" smooth="yes"/>
      <point x="381.0" y="930.1036099390531"/>
      <point x="193.6617535311261" y="1381.7690690111356"/>
      <point x="56.0" y="1453.5925925925926" type="qcurve"/>
      <point x="56.0" y="1476.0" type="line"/>
      <point x="248.0" y="1406.6296296296296"/>
      <point x="489.0" y="919.4444444444445"/>
      <point x="489.0" y="525.0" type="qcurve" smooth="yes"/>
      <point x="489.0" y="515.0" type="line" smooth="yes"/>
      <point x="489.0" y="112.37037037037037"/>
      <point x="248.0" y="-366.6296296296296"/>
    </contour>
  </outline>
</glyph>
<glyph name="two" format="2">
  <advance width="900"/>
  <unicode hex="0032"/>
  <outline>
    <contour>
      <point x="59.0" y="0.0" type="line"/>
      <point x="59.0" y="40.66666666666667" type="line"/>
      <point x="513.0" y="655.2962962962963" type="line" smooth="yes"/>
      <point x="594.0" y="772.4444444444445"/>
      <point x="716.0" y="1006.2222222222222"/>
      <point x="716.0" y="1113.0" type="qcurve" smooth="yes"/>
      <point x="716.0" y="1274.0740740740741"/>
      <point x="563.0" y="1432.0"/>
      <point x="451.0" y="1432.0" type="qcurve" smooth="yes"/>
      <point x="335.0" y="1432.0"/>
      <point x="180.0" y="1269.0740740740741"/>
      <point x="172.0" y="1075.0" type="qcurve" smooth="yes"/>
      <point x="172.0" y="1055.0" type="line"/>
      <point x="61.0" y="1055.0" type="line"/>
      <point x="61.0" y="1075.0" type="line" smooth="yes"/>
      <point x="61.0" y="1273.0"/>
      <point x="286.0" y="1476.0"/>
      <point x="454.0" y="1476.0" type="qcurve" smooth="yes"/>
      <point x="616.0" y="1476.0"/>
      <point x="827.0" y="1285.0"/>
      <point x="827.0" y="1123.0" type="qcurve" smooth="yes"/>
      <point x="827.0" y="1004.8888888888889"/>
      <point x="709.0" y="799.7407407407408"/>
      <point x="596.0" y="643.0" type="qcurve" smooth="yes"/>
      <point x="182.14814814814815" y="40.14814814814815" type="line"/>
      <point x="861.0" y="40.14814814814815" type="line"/>
      <point x="861.0" y="0.0" type="line"/>
    </contour>
  </outline>
</glyph>
<glyph name="eight" format="2">
  <advance width="900"/>
  <unicode hex="0038"/>
  <outline>
    <contour>
      <point x="37.0" y="372.18518518518516" type="qcurve" smooth="yes"/>
      <point x="37.0" y="521.9384790953418"/>
      <point x="192.5185185185185" y="723.3741625617191"/>
      <point x="283.51851851851853" y="745.5555555555555" type="qcurve"/>
      <point x="283.51851851851853" y="749.5555555555555" type="line"/>
      <point x="202.5185185185185" y="778.7369335422677"/>
      <point x="80.0" y="954.115468409586"/>
      <point x="80.0" y="1100.8148148148148" type="qcurve" smooth="yes"/>
      <point x="80.0" y="1278.6427179058758"/>
      <point x="277.51851851851853" y="1476.0"/>
      <point x="442.51851851851853" y="1476.0" type="qcurve" smooth="yes"/>
      <point x="607.5185185185185" y="1476.0"/>
      <point x="804.0" y="1267.6797549429127"/>
      <point x="804.0" y="1100.8148148148148" type="qcurve" smooth="yes"/>
      <point x="804.0" y="946.115468409586"/>
      <point x="670.0" y="776.7369335422677"/>
      <point x="591.0" y="751.5555555555555" type="qcurve"/>
      <point x="591.0" y="747.5555555555555" type="line"/>
      <point x="689.0" y="726.3741625617191"/>
      <point x="847.0" y="524.9384790953418"/>
      <point x="847.0" y="372.18518518518516" type="qcurve" smooth="yes"/>
      <point x="847.0" y="180.47685185185185"/>
      <point x="613.5185185185185" y="-20.0"/>
      <point x="442.51851851851853" y="-20.0" type="qcurve" smooth="yes"/>
      <point x="271.51851851851853" y="-20.0"/>
      <point x="37.0" y="180.47685185185185"/>
    </contour>
    <contour>
      <point x="149.0" y="380.3703703703704" type="qcurve" smooth="yes"/>
      <point x="149.0" y="214.34264318963773"/>
      <point x="304.51851851851853" y="22.0"/>
      <point x="441.51851851851853" y="22.0" type="qcurve" smooth="yes"/>
      <point x="578.5185185185185" y="22.0"/>
      <point x="734.0" y="215.34264318963773"/>
      <point x="734.0" y="379.3703703703704" type="qcurve" smooth="yes"/>
      <point x="734.0" y="548.9853626081172"/>
      <point x="564.5185185185185" y="724.0"/>
      <point x="441.51851851851853" y="724.0" type="qcurve" smooth="yes"/>
      <point x="318.51851851851853" y="724.0"/>
      <point x="149.0" y="548.9853626081172"/>
    </contour>
    <contour>
      <point x="189.0" y="1103.6296296296296" type="qcurve" smooth="yes"/>
      <point x="189.0" y="955.1981297123252"/>
      <point x="337.51851851851853" y="766.0"/>
      <point x="441.51851851851853" y="766.0" type="qcurve" smooth="yes"/>
      <point x="545.5185185185185" y="766.0"/>
      <point x="695.0" y="955.5487790629746"/>
      <point x="695.0" y="1103.6296296296296" type="qcurve" smooth="yes"/>
      <point x="695.0" y="1257.2225405921681"/>
      <point x="566.5185185185185" y="1434.0"/>
      <point x="441.51851851851853" y="1434.0" type="qcurve" smooth="yes"/>
      <point x="316.51851851851853" y="1434.0"/>
      <point x="189.0" y="1264.7777245386565"/>
    </contour>
  </outline>
</glyph>
<glyph name="question" format="2">
  <advance width="823"/>
  <unicode hex="003F"/>
  <outline>
    <contour>
      <point x="277.0" y="44.81481481481482" type="qcurve" smooth="yes"/>
      <point x="277.0" y="72.14814814814815"/>
      <point x="319.0" y="111.62962962962963"/>
      <point x="359.0" y="111.62962962962963" type="qcurve" smooth="yes"/>
      <point x="399.0" y="111.62962962962963"/>
      <point x="441.0" y="72.14814814814815"/>
      <point x="441.0" y="44.81481481481482" type="qcurve" smooth="yes"/>
      <point x="441.0" y="17.48148148148148"/>
      <point x="399.0" y="-22.0"/>
      <point x="359.0" y="-22.0" type="qcurve" smooth="yes"/>
      <point x="320.0" y="-22.0"/>
      <point x="277.0" y="17.48148148148148"/>
    </contour>
    <contour>
      <point x="75.0" y="1086.0" type="line"/>
      <point x="75.0" y="1108.0" type="line" smooth="yes"/>
      <point x="75.0" y="1279.0"/>
      <point x="248.0" y="1476.0"/>
      <point x="396.0" y="1476.0" type="qcurve" smooth="yes"/>
      <point x="544.0" y="1476.0"/>
      <point x="711.0" y="1295.6296296296296"/>
      <point x="711.0" y="1163.0740740740741" type="qcurve" smooth="yes"/>
      <point x="711.0" y="1017.0113816587368"/>
      <point x="631.0844066940958" y="874.5505498219975"/>
      <point x="547.0" y="759.9629629629629" type="qcurve" smooth="yes"/>
      <point x="465.31154335106294" y="656.3742512382855"/>
      <point x="413.0" y="504.6286949409978"/>
      <point x="413.0" y="425.0" type="qcurve" smooth="yes"/>
      <point x="413.0" y="415.0" type="line"/>
      <point x="300.0" y="415.0" type="line"/>
      <point x="300.0" y="425.0" type="line" smooth="yes"/>
      <point x="300.0" y="531.8356290174472"/>
      <point x="376.7615090709877" y="707.5696606678241"/>
      <point x="458.0" y="798.0" type="qcurve" smooth="yes"/>
      <point x="534.7634300345818" y="889.901191719927"/>
      <point x="600.0" y="1040.7492877492878"/>
      <point x="600.0" y="1163.0740740740741" type="qcurve" smooth="yes"/>
      <point x="600.0" y="1280.8400673400674"/>
      <point x="499.0" y="1436.9259259259259"/>
      <point x="397.0" y="1436.9259259259259" type="qcurve" smooth="yes"/>
      <point x="294.0" y="1436.9259259259259"/>
      <point x="186.0" y="1264.9591964846202"/>
      <point x="186.0" y="1108.0" type="qcurve" smooth="yes"/>
      <point x="186.0" y="1086.0" type="line"/>
    </contour>
  </outline>
</glyph>
<glyph name="B" format="2">
  <advance width="986"/>
  <unicode hex="0042"/>
  <outline>
    <contour>
      <point x="130.0" y="0.0" type="line"/>
      <point x="130.0" y="1456.0" type="line"/>
      <point x="505.0" y="1456.0" type="line" smooth="yes"/>
      <point x="685.0" y="1456.0"/>
      <point x="886.0" y="1283.8148148148148"/>
      <point x="886.0" y="1102.5555555555557" type="qcurve" smooth="yes"/>
      <point x="886.0" y="969.7407407407408"/>
      <point x="784.0" y="789.1111111111111"/>
      <point x="705.0" y="766.0370370370371" type="qcurve"/>
      <point x="705.0" y="762.0370370370371" type="line"/>
      <point x="805.0" y="736.9629629629629"/>
      <point x="926.0" y="537.2962962962963"/>
      <point x="926.0" y="381.51851851851853" type="qcurve" smooth="yes"/>
      <point x="926.0" y="200.25925925925927"/>
      <point x="717.0" y="0.0"/>
      <point x="537.0" y="0.0" type="qcurve" smooth="yes"/>
    </contour>
    <contour>
      <point x="240.0" y="39.0" type="line"/>
      <point x="537.0" y="39.0" type="line" smooth="yes"/>
      <point x="681.0" y="39.0"/>
      <point x="817.0" y="226.86923426493976"/>
      <point x="817.0" y="384.51851851851853" type="qcurve" smooth="yes"/>
      <point x="817.0" y="544.8426210826209"/>
      <point x="681.0" y="737.5185185185185"/>
      <point x="537.0" y="737.5185185185185" type="qcurve" smooth="yes"/>
      <point x="240.0" y="737.5185185185185" type="line"/>
    </contour>
    <contour>
      <point x="240.0" y="777.4814814814815" type="line"/>
      <point x="505.0" y="777.4814814814815" type="line" smooth="yes"/>
      <point x="649.0" y="777.4814814814815"/>
      <point x="777.0" y="948.1629887727448"/>
      <point x="777.0" y="1099.5555555555557" type="qcurve" smooth="yes"/>
      <point x="777.0" y="1252.8148148148148"/>
      <point x="649.0" y="1417.0"/>
      <point x="505.0" y="1417.0" type="qcurve" smooth="yes"/>
      <point x="240.0" y="1417.0" type="line"/>
    </contour>
  </outline>
</glyph>
<glyph name="C" format="2">
  <advance width="1069"/>
  <unicode hex="0043"/>
  <anchor x="587.0" y="0" name="bottom"/>
  <outline>
    <contour>
      <point x="86.0" y="689.0" type="qcurve" smooth="yes"/>
      <point x="86.0" y="767.0" type="line" smooth="yes"/>
      <point x="86.0" y="1141.0"/>
      <point x="367.0" y="1475.0"/>
      <point x="587.0" y="1475.0" type="qcurve" smooth="yes"/>
      <point x="797.0" y="1475.0"/>
      <point x="1029.3333333333333" y="1244.111111111111"/>
      <point x="1036.5185185185185" y="1048.0740740740741" type="qcurve" smooth="yes"/>
      <point x="1037.0" y="1008.074074074074" type="line"/>
      <point x="924.0" y="1008.074074074074" type="line"/>
      <point x="923.5185185185185" y="1038.0740740740741" type="line" smooth="yes"/>
      <point x="918.2429717349266" y="1202.4436515621114"/>
      <point x="754.0" y="1433.888888888889"/>
      <point x="587.0" y="1433.888888888889" type="qcurve" smooth="yes"/>
      <point x="400.0" y="1433.888888888889"/>
      <point x="198.0" y="1104.903536977492"/>
      <point x="198.0" y="767.0" type="qcurve" smooth="yes"/>
      <point x="198.0" y="689.0" type="line" smooth="yes"/>
      <point x="198.0" y="354.0482315112541"/>
      <point x="409.0" y="22.111111111111114"/>
      <point x="587.0" y="22.111111111111114" type="qcurve" smooth="yes"/>
      <point x="754.0" y="22.111111111111114"/>
      <point x="925.925925925926" y="224.43882696548212"/>
      <point x="924.0" y="417.9259259259259" type="qcurve" smooth="yes"/>
      <point x="924.0" y="447.9259259259259" type="line"/>
      <point x="1037.0" y="447.9259259259259" type="line"/>
      <point x="1037.0" y="407.9259259259259" type="line" smooth="yes"/>
      <point x="1038.0" y="203.92592592592592"/>
      <point x="797.0" y="-19.0"/>
      <point x="587.0" y="-19.0" type="qcurve" smooth="yes"/>
      <point x="359.0" y="-19.0"/>
      <point x="86.0" y="322.0"/>
    </contour>
  </outline>
</glyph>
<glyph name="E" format="2">
  <advance width="862"/>
  <unicode hex="0045"/>
  <anchor x="503.0" y="1372.2962962962963" name="top"/>
  <outline>
    <contour>
      <point x="130.0" y="0.0" type="line"/>
      <point x="130.0" y="1456.0" type="line"/>
      <point x="856.0" y="1456.0" type="line"/>
      <point x="856.0" y="1412.0" type="line"/>
      <point x="240.0" y="1412.0" type="line"/>
      <point x="240.0" y="773.0" type="line"/>
      <point x="758.0" y="773.0" type="line"/>
      <point x="758.0" y="729.0" type="line"/>
      <point x="240.0" y="729.0" type="line"/>
      <point x="240.0" y="44.0" type="line"/>
      <point x="866.0" y="44.0" type="line"/>
      <point x="866.0" y="0.0" type="line"/>
    </contour>
  </outline>
</glyph>
<glyph name="G" format="2">
  <advance width="1097"/>
  <unicode hex="0047"/>
  <outline>
    <contour>
      <point x="86.0" y="689.0" type="qcurve" smooth="yes"/>
      <point x="86.0" y="767.0" type="line" smooth="yes"/>
      <point x="86.0" y="1106.0"/>
      <point x="343.0" y="1476.0"/>
      <point x="576.7407407407408" y="1476.0" type="qcurve" smooth="yes"/>
      <point x="805.0" y="1476.0"/>
      <point x="1031.962962962963" y="1252.6296296296296"/>
      <point x="1031.0" y="1075.2592592592594" type="qcurve" smooth="yes"/>
      <point x="1031.0" y="1045.2592592592594" type="line"/>
      <point x="919.0" y="1045.2592592592594" type="line"/>
      <point x="918.5185185185185" y="1075.2592592592594" type="line" smooth="yes"/>
      <point x="912.7420655483452" y="1222.7687920039796"/>
      <point x="762.0" y="1434.888888888889"/>
      <point x="577.7037037037037" y="1434.888888888889" type="qcurve" smooth="yes"/>
      <point x="403.0" y="1434.888888888889"/>
      <point x="198.0" y="1089.2015999999999"/>
      <point x="198.0" y="767.0" type="qcurve" smooth="yes"/>
      <point x="198.0" y="689.0" type="line" smooth="yes"/>
      <point x="198.0" y="350.9095111111111"/>
      <point x="422.2962962962963" y="21.111111111111114"/>
      <point x="615.9629629629629" y="21.111111111111114" type="qcurve" smooth="yes"/>
      <point x="721.7407407407408" y="21.111111111111114"/>
      <point x="872.0" y="80.11111111111111"/>
      <point x="925.0" y="134.40740740740742" type="qcurve"/>
      <point x="925.0" y="617.074074074074" type="line"/>
      <point x="593.0" y="617.074074074074" type="line"/>
      <point x="593.0" y="661.0740740740741" type="line"/>
      <point x="1031.0" y="661.0740740740741" type="line"/>
      <point x="1031.0" y="143.0" type="line"/>
      <point x="991.0" y="101.0"/>
      <point x="779.0" y="-20.0"/>
      <point x="615.0" y="-20.0" type="qcurve" smooth="yes"/>
      <point x="359.0" y="-20.0"/>
      <point x="86.0" y="350.0"/>
    </contour>
  </outline>
</glyph>
<glyph name="J" format="2">
  <advance width="852"/>
  <unicode hex="004A"/>
  <outline>
    <contour>
      <point x="25.0" y="351.6666666666667" type="qcurve" smooth="yes"/>
      <point x="25.0" y="391.6666666666667" type="line"/>
      <point x="135.0" y="391.6666666666667" type="line"/>
      <point x="135.0" y="371.6666666666667" type="line" smooth="yes"/>
      <point x="135.0" y="188.10729067176055"/>
      <point x="265.0" y="21.111111111111114"/>
      <point x="384.0" y="21.111111111111114" type="qcurve" smooth="yes"/>
      <point x="503.0" y="21.111111111111114"/>
      <point x="632.0" y="243.46775709719873"/>
      <point x="632.0" y="460.0" type="qcurve" smooth="yes"/>
      <point x="632.0" y="1456.0" type="line"/>
      <point x="742.0" y="1456.0" type="line"/>
      <point x="742.0" y="450.48148148148147" type="line" smooth="yes"/>
      <point x="742.0" y="228.0"/>
      <point x="563.0" y="-20.0"/>
      <point x="384.0" y="-20.0" type="qcurve" smooth="yes"/>
      <point x="220.0" y="-20.0"/>
      <point x="25.0" y="184.0"/>
    </contour>
  </outline>
</glyph>
<glyph name="O" format="2">
  <advance width="1179"/>
  <unicode hex="004F"/>
  <anchor x="587.0" y="1432.0" name="top"/>
  <outline>
    <contour>
      <point x="86.0" y="689.0" type="qcurve" smooth="yes"/>
      <point x="86.0" y="767.0" type="line" smooth="yes"/>
      <point x="86.0" y="1136.0"/>
      <point x="364.0" y="1476.0"/>
      <point x="589.0" y="1476.0" type="qcurve" smooth="yes"/>
      <point x="815.0" y="1476.0"/>
      <point x="1093.0" y="1136.0"/>
      <point x="1093.0" y="767.0" type="qcurve" smooth="yes"/>
      <point x="1093.0" y="689.0" type="line" smooth="yes"/>
      <point x="1093.0" y="320.0"/>
      <point x="815.0" y="-20.0"/>
      <point x="589.0" y="-20.0" type="qcurve" smooth="yes"/>
      <point x="364.0" y="-20.0"/>
      <point x="86.0" y="320.0"/>
    </contour>
    <contour>
      <point x="198.0" y="689.0" type="line" smooth="yes"/>
      <point x="198.0" y="327.1111111111111"/>
      <point x="410.0" y="21.111111111111114"/>
      <point x="589.0" y="21.111111111111114" type="qcurve" smooth="yes"/>
      <point x="768.0" y="21.111111111111114"/>
      <point x="980.0" y="327.1111111111111"/>
      <point x="980.0" y="689.0" type="qcurve" smooth="yes"/>
      <point x="980.0" y="767.0" type="line" smooth="yes"/>
      <point x="980.0" y="1128.888888888889"/>
      <point x="768.0" y="1434.888888888889"/>
      <point x="589.0" y="1434.888888888889" type="qcurve" smooth="yes"/>
      <point x="410.0" y="1434.888888888889"/>
      <point x="198.0" y="1128.888888888889"/>
      <point x="198.0" y="767.0" type="qcurve" smooth="yes"/>
    </contour>
  </outline>
</glyph>
<glyph name="S" format="2">
  <advance width="1015"/>
  <unicode hex="0053"/>
  <outline>
    <contour>
      <point x="90.0" y="361.962962962963" type="qcurve" smooth="yes"/>
      <point x="90.0" y="432.44444444444446" type="line"/>
      <point x="200.0" y="432.44444444444446" type="line"/>
      <point x="200.0" y="358.1111111111111" type="line" smooth="yes"/>
      <point x="200.0" y="181.38585024653136"/>
      <point x="367.0" y="19.111111111111114"/>
      <point x="516.0" y="19.111111111111114" type="qcurve" smooth="yes"/>
      <point x="666.0" y="19.111111111111114"/>
      <point x="825.0" y="191.47098976109214"/>
      <point x="825.0" y="332.44444444444446" type="qcurve" smooth="yes"/>
      <point x="825.0" y="468.3333333333333"/>
      <point x="697.3333333333334" y="621.5185185185185"/>
      <point x="496.037037037037" y="691.4814814814815" type="qcurve" smooth="yes"/>
      <point x="301.0" y="759.5185185185185"/>
      <point x="117.0" y="957.0"/>
      <point x="117.0" y="1110.0" type="qcurve" smooth="yes"/>
      <point x="117.0" y="1270.0"/>
      <point x="324.0" y="1476.0"/>
      <point x="512.0" y="1476.0" type="qcurve" smooth="yes"/>
      <point x="691.0" y="1476.0"/>
      <point x="909.0" y="1295.6296296296296"/>
      <point x="909.0" y="1109.5555555555557" type="qcurve" smooth="yes"/>
      <point x="909.0" y="1058.5925925925926" type="line"/>
      <point x="799.0" y="1058.5925925925926" type="line"/>
      <point x="799.0" y="1129.2962962962963" type="line" smooth="yes"/>
      <point x="799.0" y="1284.4857039449873"/>
      <point x="652.0" y="1436.888888888889"/>
      <point x="512.0" y="1436.888888888889" type="qcurve" smooth="yes"/>
      <point x="369.22222222222223" y="1436.888888888889"/>
      <point x="216.37037037037038" y="1278.783751493429"/>
      <point x="216.37037037037038" y="1143.8148148148148" type="qcurve" smooth="yes"/>
      <point x="216.37037037037038" y="1011.4814814814815"/>
      <point x="357.51851851851853" y="858.9629629629629"/>
      <point x="554.5185185185185" y="788.4814814814815" type="qcurve" smooth="yes"/>
      <point x="751.0" y="718.0"/>
      <point x="934.5185185185185" y="520.4814814814815"/>
      <point x="934.5185185185185" y="359.51851851851853" type="qcurve" smooth="yes"/>
      <point x="934.5185185185185" y="188.5185185185185"/>
      <point x="709.0" y="-20.0"/>
      <point x="516.0" y="-20.0" type="qcurve" smooth="yes"/>
      <point x="322.0" y="-20.0"/>
      <point x="90.0" y="161.92592592592592"/>
    </contour>
  </outline>
</glyph>
<glyph name="bracketleft" format="2">
  <advance width="550"/>
  <unicode hex="005B"/>
  <outline>
    <contour>
      <point x="144.0" y="-310.0" type="line"/>
      <point x="144.0" y="1456.0" type="line"/>
      <point x="525.0" y="1456.0" type="line"/>
      <point x="525.0" y="1426.962962962963" type="line"/>
      <point x="253.0" y="1426.962962962963" type="line"/>
      <point x="253.0" y="-280.96296296296293" type="line"/>
      <point x="525.0" y="-280.96296296296293" type="line"/>
      <point x="525.0" y="-310.0" type="line"/>
    </contour>
  </outline>
</glyph>
<glyph name="asciicircum" format="2">
  <advance width="1058"/>
  <unicode hex="005E"/>
  <outline>
    <contour>
      <point x="49.074074074074076" y="720.0" type="line"/>
      <point x="479.0" y="1456.0" type="line"/>
      <point x="580.0" y="1456.0" type="line"/>
      <point x="1008.925925925926" y="720.0" type="line"/>
      <point x="950.1481481481482" y="720.0" type="line"/>
      <point x="529.0" y="1346.4444444444443" type="line"/>
      <point x="107.85185185185185" y="720.0" type="line"/>
    </contour>
  </outline>
</glyph>
<glyph name="underscore" format="2">
  <advance width="888"/>
  <unicode hex="005F"/>
  <outline>
    <contour>
      <point x="0.0" y="-317.0" type="line"/>
      <point x="0.0" y="-235.0" type="line"/>
      <point x="888.0" y="-235.0" type="line"/>
      <point x="888.0" y="-317.0" type="line"/>
    </contour>
  </outline>
</glyph>
<glyph name="k" format="2">
  <advance width="786"/>
  <unicode hex="006B"/>
  <outline>
    <contour>
      <point x="118.0" y="0.0" type="line"/>
      <point x="118.0" y="1458.0" type="line"/>
      <point x="225.0" y="1458.0" type="line"/>
      <point x="225.0" y="464.25925925925924" type="line"/>
      <point x="646.3333333333334" y="914.0" type="line"/>
      <point x="738.6666666666666" y="914.0" type="line"/>
      <point x="225.0" y="376.74074074074076" type="line"/>
      <point x="225.0" y="0.0" type="line"/>
    </contour>
    <contour>
      <point x="652.4444444444445" y="0.0" type="line"/>
      <point x="299.6666666666667" y="506.8888888888889" type="line"/>
      <point x="389.22222222222223" y="595.1111111111111" type="line"/>
      <point x="799.0" y="0.0" type="line"/>
    </contour>
  </outline>
</glyph>
<glyph name="m" format="2">
  <advance width="1442"/>
  <unicode hex="006D"/>
  <outline>
    <contour>
      <point x="118.0" y="0.0" type="line"/>
      <point x="118.0" y="914.0" type="line"/>
      <point x="220.0" y="914.0" type="line"/>
      <point x="220.0" y="777.0" type="line"/>
      <point x="221.0" y="777.0" type="line"/>
      <point x="272.0" y="849.5555555555555"/>
      <point x="413.0" y="934.0"/>
      <point x="505.0" y="934.0" type="qcurve" smooth="yes"/>
      <point x="600.0" y="934.0"/>
      <point x="731.0" y="849.5555555555555"/>
      <point x="756.0" y="773.8148148148148" type="qcurve"/>
      <point x="757.0" y="773.8148148148148" type="line"/>
      <point x="804.0" y="847.5555555555555"/>
      <point x="961.0" y="934.0"/>
      <point x="1060.0" y="934.0" type="qcurve" smooth="yes"/>
      <point x="1183.0" y="934.0"/>
      <point x="1334.0" y="805.1481481481482"/>
      <point x="1334.0" y="654.1481481481482" type="qcurve" smooth="yes"/>
      <point x="1334.0" y="0.0" type="line"/>
      <point x="1226.0" y="0.0" type="line"/>
      <point x="1226.0" y="656.1481481481482" type="line" smooth="yes"/>
      <point x="1226.0" y="787.9997189763201"/>
      <point x="1122.0" y="892.0370370370371"/>
      <point x="1026.0" y="892.0370370370371" type="qcurve" smooth="yes"/>
      <point x="942.0" y="892.0370370370371"/>
      <point x="820.0" y="787.6296296296297"/>
      <point x="780.0" y="708.1481481481482" type="qcurve"/>
      <point x="780.0" y="0.0" type="line"/>
      <point x="672.0" y="0.0" type="line"/>
      <point x="672.0" y="656.1481481481482" type="line" smooth="yes"/>
      <point x="672.0" y="787.0408996403515"/>
      <point x="567.0" y="892.0370370370371"/>
      <point x="471.0" y="892.0370370370371" type="qcurve" smooth="yes"/>
      <point x="388.0" y="892.0370370370371"/>
      <point x="266.0" y="786.6296296296297"/>
      <point x="225.0" y="708.1481481481482" type="qcurve"/>
      <point x="225.0" y="0.0" type="line"/>
    </contour>
  </outline>
</glyph>
<glyph name="p" format="2">
  <advance width="937"/>
  <unicode hex="0070"/>
  <outline>
    <contour>
      <point x="118.0" y="-444.0" type="line"/>
      <point x="118.0" y="914.0" type="line"/>
      <point x="220.0" y="914.0" type="line"/>
      <point x="220.0" y="782.0" type="line"/>
      <point x="221.0" y="782.0" type="line"/>
      <point x="258.0" y="845.0370370370371"/>
      <point x="420.0" y="934.0"/>
      <point x="519.0" y="934.0" type="qcurve" smooth="yes"/>
      <point x="691.0" y="934.0"/>
      <point x="881.0" y="689.0"/>
      <point x="881.0" y="479.0" type="qcurve" smooth="yes"/>
      <point x="881.0" y="447.0" type="line" smooth="yes"/>
      <point x="881.0" y="233.0"/>
      <point x="691.0" y="-20.0"/>
      <point x="519.0" y="-20.0" type="qcurve" smooth="yes"/>
      <point x="419.0" y="-20.0"/>
      <point x="272.0" y="57.96296296296296"/>
      <point x="225.0" y="120.0" type="qcurve"/>
      <point x="225.0" y="-444.0" type="line"/>
    </contour>
    <contour>
      <point x="225.0" y="199.85185185185185" type="line"/>
      <point x="256.0" y="130.37037037037038"/>
      <point x="392.0" y="24.888888888888893"/>
      <point x="490.0" y="24.888888888888893" type="qcurve" smooth="yes"/>
      <point x="635.0" y="24.888888888888893"/>
      <point x="771.0" y="266.5931712962963"/>
      <point x="771.0" y="448.0" type="qcurve" smooth="yes"/>
      <point x="771.0" y="479.0" type="line" smooth="yes"/>
      <point x="771.0" y="659.2832185285015"/>
      <point x="635.0" y="889.1111111111111"/>
      <point x="490.0" y="889.1111111111111" type="qcurve" smooth="yes"/>
      <point x="393.0" y="889.1111111111111"/>
      <point x="256.0" y="783.6296296296297"/>
      <point x="225.0" y="715.1481481481482" type="qcurve"/>
    </contour>
  </outline>
</glyph>
<glyph name="u" format="2">
  <advance width="908"/>
  <unicode hex="0075"/>
  <anchor x="450.0" y="914.0" name="top"/>
  <outline>
    <contour>
      <point x="108.0" y="260.85185185185185" type="qcurve" smooth="yes"/>
      <point x="108.0" y="914.0" type="line"/>
      <point x="215.0" y="914.0" type="line"/>
      <point x="215.0" y="258.85185185185185" type="line" smooth="yes"/>
      <point x="215.0" y="127.00411522633746"/>
      <point x="325.0" y="22.96296296296297"/>
      <point x="426.0" y="22.96296296296297" type="qcurve" smooth="yes"/>
      <point x="512.0" y="22.96296296296297"/>
      <point x="642.0" y="125.88888888888889"/>
      <point x="682.0" y="205.85185185185185" type="qcurve"/>
      <point x="682.0" y="914.0" type="line"/>
      <point x="790.0" y="914.0" type="line"/>
      <point x="790.0" y="0.0" type="line"/>
      <point x="689.0" y="0.0" type="line"/>
      <point x="686.0" y="138.0" type="line"/>
      <point x="686.0" y="138.0" type="line"/>
      <point x="637.0" y="63.44444444444444"/>
      <point x="487.0" y="-20.0"/>
      <point x="393.0" y="-20.0" type="qcurve" smooth="yes"/>
      <point x="261.0" y="-20.0"/>
      <point x="108.0" y="108.85185185185185"/>
    </contour>
  </outline>
</glyph>
<glyph name="x" format="2">
  <advance width="729"/>
  <unicode hex="0078"/>
  <outline>
    <contour>
      <point x="24.074074074074073" y="0.0" type="line"/>
      <point x="332.3333333333333" y="483.0740740740741" type="line"/>
      <point x="370.77777777777777" y="497.0740740740741" type="line"/>
      <point x="643.1481481481482" y="914.0" type="line"/>
      <point x="685.925925925926" y="914.0" type="line"/>
      <point x="388.18518518518516" y="451.0740740740741" type="line"/>
      <point x="351.74074074074076" y="441.0740740740741" type="line"/>
      <point x="66.85185185185185" y="0.0" type="line"/>
    </contour>
    <contour>
      <point x="20.0" y="914.0" type="line"/>
      <point x="150.0" y="914.0" type="line"/>
      <point x="399.0" y="518.0" type="line"/>
      <point x="417.0" y="498.0" type="line"/>
      <point x="729.0" y="0.0" type="line"/>
      <point x="599.0" y="0.0" type="line"/>
      <point x="339.0" y="421.0" type="line"/>
      <point x="323.0" y="438.0" type="line"/>
    </contour>
  </outline>
</glyph>
<glyph name="braceright" format="2">
  <advance width="618"/>
  <unicode hex="007D"/>
  <outline>
    <contour>
      <point x="45.0" y="-312.0" type="qcurve"/>
      <point x="45.0" y="-278.22222222222223" type="line"/>
      <point x="187.0" y="-278.22222222222223"/>
      <point x="321.766558448653" y="-62.136942915752215"/>
      <point x="285.0" y="122.0" type="qcurve" smooth="yes"/>
      <point x="238.0" y="334.0" type="line" smooth="yes"/>
      <point x="219.0" y="418.0"/>
      <point x="291.0" y="546.0"/>
      <point x="390.0" y="574.0" type="qcurve"/>
      <point x="291.0" y="602.0"/>
      <point x="219.0" y="730.0"/>
      <point x="238.0" y="814.0" type="qcurve" smooth="yes"/>
      <point x="285.0" y="1026.0" type="line" smooth="yes"/>
      <point x="321.766558448653" y="1210.1369429157521"/>
      <point x="187.0" y="1426.2222222222222"/>
      <point x="45.0" y="1426.2222222222222" type="qcurve"/>
      <point x="45.0" y="1460.0" type="line"/>
      <point x="231.0" y="1460.0"/>
      <point x="438.0" y="1231.6296296296296"/>
      <point x="395.0" y="1031.0" type="qcurve" smooth="yes"/>
      <point x="347.0" y="819.0" type="line" smooth="yes"/>
      <point x="318.67391488145574" y="682.8190499856887"/>
      <point x="440.0" y="594.7407407407408"/>
      <point x="545.0" y="594.7407407407408" type="qcurve"/>
      <point x="545.0" y="554.2592592592592" type="line"/>
      <point x="440.0" y="554.2592592592592"/>
      <point x="318.5427850243741" y="465.7601068830885"/>
      <point x="347.0" y="329.0" type="qcurve" smooth="yes"/>
      <point x="395.0" y="117.0" type="line" smooth="yes"/>
      <point x="438.0" y="-83.62962962962963"/>
      <point x="231.0" y="-312.0"/>
    </contour>
  </outline>
</glyph>
<glyph name="dieresis" format="2">
  <advance width="1024"/>
  <unicode hex="00A8"/>
  <anchor x="423.0" y="1577.0" name="mkmktop_acc"/>
  <outline>
    <contour>
      <point x="209.0" y="1057.0" type="qcurve" smooth="yes"/>
      <point x="209.0" y="1098.0"/>
      <point x="259.0" y="1154.0"/>
      <point x="307.0" y="1154.0" type="qcurve" smooth="yes"/>
      <point x="356.0" y="1154.0"/>
      <point x="406.0" y="1098.0"/>
      <point x="406.0" y="1057.0" type="qcurve" smooth="yes"/>
      <point x="406.0" y="1019.0"/>
      <point x="356.0" y="964.0"/>
      <point x="307.0" y="964.0" type="qcurve" smooth="yes"/>
      <point x="259.0" y="964.0"/>
      <point x="209.0" y="1019.0"/>
    </contour>
    <contour>
      <point x="618.0" y="1055.0" type="qcurve" smooth="yes"/>
      <point x="618.0" y="1096.0"/>
      <point x="668.0" y="1152.0"/>
      <point x="716.0" y="1152.0" type="qcurve" smooth="yes"/>
      <point x="764.0" y="1152.0"/>
      <point x="815.0" y="1096.0"/>
      <point x="815.0" y="1055.0" type="qcurve" smooth="yes"/>
      <point x="815.0" y="1017.0"/>
      <point x="764.0" y="962.0"/>
      <point x="716.0" y="962.0" type="qcurve" smooth="yes"/>
      <point x="668.0" y="962.0"/>
      <point x="618.0" y="1017.0"/>
    </contour>
  </outline>
</glyph>
<glyph name="fraction" format="2">
  <advance width="342"/>
  <unicode hex="2044"/>
  <guideline x="0" y="901.0" angle="0" identifier="tcCoNUQTdD"/>
  <guideline x="0" y="555.0" angle="0" identifier="0lx51aIE0d"/>
  <outline>
    <contour>
      <point x="653.3703703703703" y="1467.4444444444443" type="line"/>
      <point x="-246.14814814814815" y="-38.074074074074076" type="line"/>
      <point x="-292.6296296296296" y="-4.037037037037036" type="line"/>
      <point x="602.8888888888889" y="1489.4814814814815" type="line"/>
    </contour>
  </outline>
</glyph>
<glyph name="dollar.rvrn" format="2">
  <advance width="927"/>
  <outline>
    <contour>
      <point x="59.0" y="402.55555555555554" type="qcurve" smooth="yes"/>
      <point x="59.0" y="414.55555555555554" type="line"/>
      <point x="166.0" y="414.55555555555554" type="line"/>
      <point x="166.0" y="402.55555555555554" type="line" smooth="yes"/>
      <point x="166.0" y="212.55555555555554"/>
      <point x="328.0" y="41.0"/>
      <point x="472.0" y="41.0" type="qcurve" smooth="yes"/>
      <point x="616.0" y="41.0"/>
      <point x="760.3703703703703" y="213.7037037037037"/>
      <point x="760.3703703703703" y="356.55555555555554" type="qcurve" smooth="yes"/>
      <point x="760.3703703703703" y="481.55555555555554"/>
      <point x="666.0" y="651.6666666666666"/>
      <point x="466.0" y="713.1481481481482" type="qcurve" smooth="yes"/>
      <point x="262.0" y="774.1481481481482"/>
      <point x="85.0" y="962.1481481481482"/>
      <point x="85.0" y="1110.4444444444443" type="qcurve" smooth="yes"/>
      <point x="85.0" y="1273.5185185185185"/>
      <point x="287.0" y="1456.0"/>
      <point x="462.0" y="1456.0" type="qcurve" smooth="yes"/>
      <point x="641.0" y="1456.0"/>
      <point x="840.3703703703703" y="1245.3333333333333"/>
      <point x="840.3703703703703" y="1057.5185185185185" type="qcurve" smooth="yes"/>
      <point x="840.3703703703703" y="1045.5185185185185" type="line"/>
      <point x="732.3703703703703" y="1045.5185185185185" type="line"/>
      <point x="732.3703703703703" y="1057.5185185185185" type="line" smooth="yes"/>
      <point x="732.3703703703703" y="1226.111111111111"/>
      <point x="600.0" y="1415.0"/>
      <point x="462.0" y="1415.0" type="qcurve" smooth="yes"/>
      <point x="324.0" y="1415.0"/>
      <point x="194.0" y="1258.2592592592594"/>
      <point x="194.0" y="1113.4444444444443" type="qcurve" smooth="yes"/>
      <point x="194.0" y="989.9629629629629"/>
      <point x="315.0" y="825.9629629629629"/>
      <point x="516.0" y="764.0" type="qcurve" smooth="yes"/>
      <point x="719.0" y="700.5555555555555"/>
      <point x="868.3703703703703" y="506.9259259259259"/>
      <point x="868.3703703703703" y="359.55555555555554" type="qcurve" smooth="yes"/>
      <point x="868.3703703703703" y="186.4814814814815"/>
      <point x="658.0" y="0.0"/>
      <point x="472.0" y="0.0" type="qcurve" smooth="yes"/>
      <point x="284.0" y="0.0"/>
      <point x="59.0" y="192.25925925925927"/>
    </contour>
    <contour>
      <point x="423.0" y="-150.0" type="line"/>
      <point x="423.0" y="24.66666666666667" type="line"/>
      <point x="512.0" y="24.66666666666667" type="line"/>
      <point x="512.0" y="16.296296296296298" type="line"/>
      <point x="516.0" y="6.296296296296298" type="line"/>
      <point x="516.0" y="-150.0" type="line"/>
    </contour>
    <contour>
      <point x="424.0" y="1430.8518518518517" type="line"/>
      <point x="424.0" y="1429.7037037037037" type="line"/>
      <point x="419.0" y="1439.7037037037037" type="line"/>
      <point x="419.0" y="1606.0" type="line"/>
      <point x="512.0" y="1606.0" type="line"/>
      <point x="512.0" y="1430.8518518518517" type="line"/>
    </contour>
  </outline>
</glyph>
